PathFileType	4	(X/Y/Z)	3_coords_data.trc
DataRate	CameraRate	NumFrames	NumMarkers	Units	OrigDataRate	OrigDataStartFrame	OrigNumFrames
30.0	30.0	7	21	m	30.0	49	78
Frame#	Time	THUMB_TIP	THUMB_IP	THUMB_MCP	THUMB_CMC	INDEX_TIP	INDEX_DIP	INDEX_PIP	INDEX_MCP	MIDDLE_TIP	MIDDLE_DIP	MIDDLE_PIP	MIDDLE_MCP	RING_TIP	RING_DIP	RING_PIP	RING_MCP	PINKY_TIP	PINKY_DIP	PINKY_PIP	PINKY_MCP	WRIST
X1	Y1	Z1	X2	Y2	Z2	X3	Y3	Z3	X4	Y4	Z4	X5	Y5	Z5	X6	Y6	Z6	X7	Y7	Z7	X8	Y8	Z8	X9	Y9	Z9	X10	Y10	Z10	X11	Y11	Z11	X12	Y12	Z12	X13	Y13	Z13	X14	Y14	Z14	X15	Y15	Z15	X16	Y16	Z16	X17	Y17	Z17	X18	Y18	Z18	X19	Y19	Z19	X20	Y20	Z20	X21	Y21	Z21
48	1.6	-0.1769230041503906	-0.1270459976196289	0.918625	-0.1759290008544922	-0.1044010009765625	0.9369240112304688	-0.17920199584960939	-0.08711720275878906	0.9636710205078125	-0.17584300231933594	-0.056399700164794925	0.9867520141601562	-0.158281005859375	-0.05844409942626953	0.9588250122070312	-0.14665899658203124	-0.05481589889526367	0.9421909790039062	-0.1536739959716797	-0.05564509963989258	0.9189619750976562	-0.19157899475097656	-0.06307559967041015	0.93097802734375	-0.16164399719238282	-0.0436869010925293	0.9614199829101563	-0.14910600280761718	-0.03751670074462891	0.9495499877929687	-0.1542969970703125	-0.03444469833374023	0.9220900268554687	-0.1959080047607422	-0.039939701080322264	0.9296409912109375	-0.17015499877929688	-0.03139739990234375	0.9681160278320312	-0.15861099243164062	-0.02312190055847168	0.9572630004882813	-0.15882200622558593	-0.01469219970703125	0.9331890258789063	-0.1982519989013672	-0.02028809928894043	0.936927001953125	-0.17215199279785157	-0.01829360008239746	0.970625	-0.16191799926757813	-0.00948213005065918	0.9609500122070312	-0.1661540069580078	-0.00015450599789619402	0.945333984375	-0.19786599731445312	-0.002822700023651123	0.9469940185546875	-0.19508999633789062	-0.03324610137939453	1.0115
49	1.6333333333333333	-0.1730260009765625	-0.11984100341796874	0.9133200073242187	-0.17395599365234374	-0.1000999984741211	0.9346729736328125	-0.17877099609375	-0.0856166000366211	0.9630349731445312	-0.1760070037841797	-0.056102798461914065	0.9865189819335938	-0.15171099853515624	-0.056074600219726566	0.9549860229492187	-0.14548399353027344	-0.05396689987182617	0.9364520263671875	-0.15723199462890625	-0.05610929870605469	0.9144530029296875	-0.19332600402832031	-0.06307550048828126	0.9316060180664063	-0.15702400207519532	-0.04263280105590821	0.9591019897460937	-0.14657699584960937	-0.036589199066162106	0.942989990234375	-0.1580989990234375	-0.035020401000976566	0.9172589721679687	-0.19851199340820314	-0.040389999389648434	0.9305640258789063	-0.16777499389648437	-0.031192699432373048	0.96597802734375	-0.15736000061035157	-0.022687299728393555	0.952364013671875	-0.1615850067138672	-0.01511870002746582	0.92852001953125	-0.20093099975585937	-0.020456499099731445	0.9375130004882812	-0.16948899841308593	-0.018225700378417968	0.96797900390625	-0.16097999572753907	-0.009097599983215332	0.956802001953125	-0.167552001953125	-0.000479654997587204	0.9417020263671875	-0.19938499450683594	-0.003232660055160522	0.946864013671875	-0.19539700317382813	-0.03274399948120117	1.012010009765625
50	1.6666666666666667	-0.16667999267578126	-0.11191100311279296	0.909885009765625	-0.1719810028076172	-0.09508689880371093	0.9333870239257812	-0.17741400146484376	-0.08390139770507812	0.9629439697265625	-0.1760449981689453	-0.05536679840087891	0.9868720092773438	-0.14470399475097656	-0.05284479904174805	0.9486320190429688	-0.1433719940185547	-0.05207749938964844	0.92847998046875	-0.160427001953125	-0.055675998687744144	0.910375	-0.19441200256347657	-0.062294399261474606	0.932458984375	-0.1493489990234375	-0.03986669921875	0.9540029907226563	-0.14328799438476564	-0.034147300720214845	0.9339119873046875	-0.160875	-0.034674198150634765	0.9120590209960937	-0.2008280029296875	-0.039779998779296874	0.9314329833984375	-0.16242100524902345	-0.029159799575805664	0.9621129760742188	-0.15577000427246093	-0.020415399551391603	0.9459439697265625	-0.1656020050048828	-0.014130100250244141	0.9231300048828125	-0.20230099487304687	-0.02008099937438965	0.9379459838867188	-0.16302200317382812	-0.016233999252319335	0.963208984375	-0.15929899597167968	-0.007132929801940918	0.95064697265625	-0.16915899658203126	0.0006755639910697931	0.9370659790039062	-0.19978700256347656	-0.002677779912948608	0.9468729858398437	-0.19534300231933593	-0.03165419960021973	1.0129000244140625
51	1.7	-0.16314799499511717	-0.10536499786376953	0.9083889770507813	-0.16886199951171876	-0.0915802001953125	0.932947998046875	-0.17577200317382813	-0.082033203125	0.9627969970703125	-0.17580299377441405	-0.05420830154418945	0.9870490112304687	-0.13746000671386718	-0.04901259994506836	0.9391339721679688	-0.14160800170898438	-0.0498568000793457	0.9191610107421875	-0.16281399536132812	-0.054777500152587894	0.9064860229492188	-0.19400700378417968	-0.06061880111694336	0.9330260009765625	-0.13941700744628907	-0.034687698364257814	0.9441510009765625	-0.14046000671386719	-0.03148579978942871	0.92339697265625	-0.1642209930419922	-0.033786598205566405	0.9077479858398437	-0.2008800048828125	-0.03873910140991211	0.9319739990234375	-0.1572250061035156	-0.025288000106811523	0.956041015625	-0.15345100402832032	-0.016617900848388673	0.9366190185546875	-0.16939500427246093	-0.012719300270080567	0.9176209716796875	-0.20240199279785157	-0.019149599075317384	0.9385549926757812	-0.15826300048828126	-0.01251930046081543	0.9563079833984375	-0.15731500244140625	-0.003015520095825195	0.9419400024414063	-0.17213400268554688	0.00269825005531311	0.9322940063476562	-0.20120700073242187	-0.0018388899564743043	0.9474580078125	-0.19459700012207032	-0.030520700454711915	1.0130399780273438
52	1.7333333333333334	-0.15945599365234375	-0.10062300109863281	0.9084140014648437	-0.16738299560546874	-0.08821640014648438	0.9332589721679687	-0.17447500610351563	-0.07994069671630859	0.963323974609375	-0.17558599853515625	-0.052872798919677735	0.9879639892578125	-0.12763600158691407	-0.04425799942016601	0.9232769775390625	-0.13991400146484376	-0.047996700286865236	0.9089030151367188	-0.16376499938964845	-0.05359320068359375	0.903530029296875	-0.19154800415039064	-0.058516300201416016	0.9329450073242187	-0.12643399810791014	-0.02898310089111328	0.92706298828125	-0.13832400512695311	-0.028932300567626953	0.9108510131835937	-0.16579600524902344	-0.032732101440429685	0.902906982421875	-0.1991510009765625	-0.036701801300048825	0.9321840209960938	-0.14485299682617186	-0.016060600280761717	0.9403779907226563	-0.15130799865722655	-0.011420700073242187	0.9228189697265625	-0.17403399658203125	-0.010979100227355957	0.910802978515625	-0.20146299743652343	-0.017489999771118165	0.93914501953125	-0.1511909942626953	-0.006418590068817139	0.9455659790039063	-0.15636000061035157	0.002487260103225708	0.933	-0.17476499938964843	0.006050079822540283	0.9276719970703124	-0.19894500732421874	0.000447290003299713	0.947593017578125	-0.19516900634765624	-0.02911989974975586	1.0138400268554688
53	1.7666666666666666	-0.15614199829101563	-0.09707379913330078	0.9090659790039063	-0.16534300231933594	-0.08552100372314453	0.9341530151367188	-0.17271699523925782	-0.07762149810791015	0.964031982421875	-0.17519500732421875	-0.051126899719238283	0.9888350219726563	-0.12195500183105469	-0.041815101623535154	0.9061799926757812	-0.13992999267578124	-0.04702119827270508	0.898458984375	-0.16368499755859375	-0.05242770004272461	0.9007639770507813	-0.18821299743652345	-0.05594540023803711	0.93275	-0.12136000061035156	-0.02409320068359375	0.9036649780273438	-0.13988099670410156	-0.026651199340820313	0.8961589965820312	-0.16714999389648438	-0.03098270034790039	0.8982520141601562	-0.19278399658203124	-0.03434540176391602	0.9314500122070313	-0.13814100646972657	-0.00849318027496338	0.9207969970703125	-0.15183299255371094	-0.006764969825744629	0.9076209716796875	-0.1756840057373047	-0.008988459587097168	0.9062680053710938	-0.1927510070800781	-0.014920000076293946	0.9367449951171875	-0.14827499389648438	0.003275860071182251	0.9295499877929687	-0.1604029998779297	0.009592840194702149	0.9215180053710937	-0.17835699462890625	0.010513500213623047	0.922468994140625	-0.19412100219726564	0.003347609996795654	0.9467329711914062	-0.19538999938964843	-0.027921499252319334	1.0148900146484374
54	1.8	-0.15054800415039063	-0.09182050323486328	0.90997802734375	-0.16177200317382812	-0.08248919677734375	0.934968017578125	-0.17002999877929686	-0.0751685028076172	0.9647349853515625	-0.17413999938964844	-0.04928670120239258	0.989614990234375	-0.12052799987792968	-0.03971929931640625	0.8913800048828125	-0.14098899841308593	-0.04555289840698242	0.8910789794921875	-0.16300100708007811	-0.050706298828125	0.8995189819335937	-0.18482899475097656	-0.05345790100097656	0.9330239868164063	-0.12223300170898438	-0.019927400588989258	0.8853790283203125	-0.1424600067138672	-0.023437400817871094	0.8865490112304687	-0.16885899353027345	-0.028237600326538086	0.895760009765625	-0.19110000610351563	-0.0318528995513916	0.9313989868164062	-0.13596600341796874	-0.002491199970245361	0.9058790283203125	-0.15387399291992188	-0.002848190069198608	0.8997479858398437	-0.17853700256347657	-0.006599140167236328	0.9034660034179688	-0.19605400085449218	-0.012997099876403809	0.9395009765625	-0.14856100463867186	0.010051300048828125	0.9205419921875	-0.16386700439453125	0.014654000282287598	0.9160280151367187	-0.18029400634765624	0.01380869960784912	0.92110302734375	-0.19284500122070314	0.005391190052032471	0.9487789916992188	-0.19505000305175782	-0.02673929977416992	1.0154400024414063
